<?xml version="1.0" encoding="UTF-8" standalone="no"?>
<svg xmlns="http://www.w3.org/2000/svg" height="512" viewBox="0 0 135.46666 135.46667" width="512" version="1.1" xmlns:xlink="http://www.w3.org/1999/xlink">
 <defs>
  <linearGradient id="a">
   <stop style="stop-color:#fff" offset="0"/>
   <stop style="stop-color:#fff;stop-opacity:0" offset="1"/>
  </linearGradient>
  <linearGradient id="i" x1="321.3" gradientUnits="userSpaceOnUse" x2="321.3" gradientTransform="matrix(.3501 0 0 .3501 6.885 -73.49)" y1="274.8" y2="403">
   <stop style="stop-color:#fafafa" offset="0"/>
   <stop style="stop-color:#e6e1eb" offset="1"/>
  </linearGradient>
  <linearGradient id="h" x1="227.8" xlink:href="#a" gradientUnits="userSpaceOnUse" x2="227.8" gradientTransform="matrix(.4283 0 0 .4283 53.47 146.4)" y1="171.1" y2="293.9"/>
  <linearGradient id="g" x1="260.5" xlink:href="#b" gradientUnits="userSpaceOnUse" x2="260.5" gradientTransform="matrix(.3007 0 0 .3007 34.22 228.3)" y1="111.8" y2="293.2"/>
  <linearGradient id="b">
   <stop style="stop-color:#e4e9ee" offset="0"/>
   <stop style="stop-color:#b6bec6" offset="1"/>
  </linearGradient>
  <linearGradient id="f" x1="227.8" xlink:href="#a" gradientUnits="userSpaceOnUse" y1="171.1" gradientTransform="matrix(.08018 0 0 .08018 -8.939 274.5)" x2="227.8" y2="293.9"/>
  <linearGradient id="e" x1="227.8" xlink:href="#a" gradientUnits="userSpaceOnUse" y1="171.1" gradientTransform="matrix(.1175 0 0 .1175 -.8152 263.8)" x2="227.8" y2="293.9"/>
  <linearGradient id="d" x1="260.5" xlink:href="#b" gradientUnits="userSpaceOnUse" y1="111.8" gradientTransform="matrix(.1584 0 0 .1584 4.568 250.8)" x2="260.5" y2="293.2"/>
  <linearGradient id="c" x1="227.8" xlink:href="#a" gradientUnits="userSpaceOnUse" y1="171.1" gradientTransform="matrix(.4283 0 0 .4283 -17.98 190.2)" x2="227.8" y2="293.9"/>
 </defs>
 <g transform="translate(0 -161.5)">
  <rect style="color-rendering:auto;color:#000000;isolation:auto;mix-blend-mode:normal;paint-order:stroke fill markers;shape-rendering:auto;solid-color:#000000;image-rendering:auto;fill:#225685" height="135.5" width="135.5" y="161.5" x=".00000356"/>
  <path style="opacity:.1;color:#000000;fill:url(#c)" d="m79.59 263.5c-9.849 0.01-18.87 5.524-23.37 14.29-2.889-1.507-6.097-2.297-9.356-2.303-11.21-0.00008-20.31 9.091-20.31 20.31-0.000081 11.21 9.091 20.31 20.31 20.31h32.72c14.52 0.00007 26.3-11.77 26.3-26.3 0.00004-14.52-11.77-26.3-26.3-26.3z"/>
  <g transform="matrix(1.2 0 0 1.2 -73.68 182.1)">
   <path style="color-rendering:auto;color:#000000;shape-rendering:auto;text-decoration-line:none;image-rendering:auto;text-indent:0;text-transform:none;fill:url(#i)" d="m121 10.53c-11.03 0-20.39 6.803-24.84 16.46-10.35 0.7542-18.52 9.7-18.52 20.53 0 11.31 8.884 20.65 19.9 20.65h45.33c8.424 0 15.21-7.146 15.21-15.75 0-6.529-3.93-12.04-9.51-14.41-0.7-15.2-12.7-27.48-27.6-27.48z"/>
  </g>
  <path style="opacity:.1;color:#000000;fill:url(#g)" d="m121.6 257.5c-8.239 0.0108-15.98 3.961-20.82 10.63-1.793-0.5064-3.646-0.7666-5.509-0.7736-11.06 0.0124-20.13 8.779-20.52 19.83-7.563 0.9075-13.26 7.319-13.27 14.94-0.000276 8.319 6.744 15.06 15.06 15.06h63.49c9.952 0.00022 18.02-8.068 18.02-18.02-0.006-7.123-4.207-13.57-10.72-16.46-0.3003-14-11.74-25.2-25.74-25.21z"/>
  <path style="opacity:.1;color:#000000;fill:url(#h)" d="m151 219.7c-9.849 0.01-18.87 5.524-23.37 14.29-2.889-1.507-6.097-2.297-9.356-2.303-11.21-0.00008-20.31 9.091-20.31 20.31-0.000081 11.21 9.091 20.31 20.31 20.31h32.72c14.52 0.00007 26.3-11.77 26.3-26.3 0.00004-14.52-11.77-26.3-26.3-26.3z"/>
  <path style="color:#000000;stroke:#ccc;stroke-width:1.058;display:none;fill:#fff" d="m-313.2 298.7c-2.075 0-3.851 1.331-4.582 3.225-0.0162-0.00017-0.032 0-0.0482 0-1.875 0-3.395 1.588-3.395 3.547s1.52 3.547 3.395 3.547h8.952c1.364 0 2.469-1.155 2.469-2.58 0-1.202-0.7869-2.213-1.852-2.499 0.00027-0.0272 0-0.0533 0-0.0806 0-2.849-2.211-5.159-4.939-5.159z"/>
  <path style="color:#000000;stroke:#ccc;stroke-width:1.058;display:none;fill:none" d="m-181.7 357.6c-1.68 0-3.118 1.077-3.71 2.611-0.0131-0.00015-0.0259 0-0.0391 0-1.518 0-2.749 1.286-2.749 2.872s1.231 2.872 2.749 2.872h7.248c1.104 0 1.999-0.9351 1.999-2.089 0-0.9733-0.6371-1.792-1.5-2.023 0.00026-0.022 0-0.0432 0-0.0653 0-2.307-1.79-4.177-3.999-4.177z"/>
  <path style="color:#000000;stroke:#ccc;stroke-width:1.058;display:none;fill:none" d="m-63.33 429.1c-2.428 0-4.507 1.557-5.363 3.774-0.01895-0.00022-0.0374 0-0.05645 0-2.195 0-3.974 1.859-3.974 4.151 0 2.293 1.779 4.151 3.974 4.151h10.48c1.596 0 2.89-1.352 2.89-3.019 0-1.407-0.921-2.59-2.168-2.925 0.000529-0.0319 0-0.0624 0-0.0944 0-3.335-2.588-6.038-5.78-6.038z"/>
  <path style="opacity:.1;color:#000000;fill:url(#f)" d="m9.326 288.3c-1.844 0.002-3.532 1.034-4.374 2.674-0.5407-0.2821-1.141-0.43-1.751-0.4311-2.099-0.00002-3.801 1.702-3.801 3.801-0.000015 2.099 1.702 3.801 3.801 3.801h6.125c2.719 0.00001 4.923-2.204 4.923-4.923 0.000009-2.719-2.204-4.923-4.923-4.923z"/>
  <path style="opacity:.1;color:#000000;fill:url(#e)" d="m25.95 283.9c-2.702 0.003-5.175 1.515-6.409 3.918-0.7923-0.4134-1.672-0.63-2.566-0.6317-3.076-0.00003-5.57 2.494-5.57 5.57-0.000022 3.076 2.494 5.57 5.57 5.57h8.975c3.984 0.00001 7.213-3.229 7.213-7.213 0.00001-3.984-3.229-7.213-7.213-7.213z"/>
  <path style="opacity:.1;color:#000000;fill:url(#d)" d="m50.63 266.2c-4.341 0.006-8.417 2.087-10.97 5.599-0.9446-0.2668-1.921-0.4039-2.903-0.4076-5.828 0.007-10.61 4.625-10.81 10.45-3.985 0.4781-6.986 3.856-6.991 7.87-0.000145 4.383 3.553 7.936 7.936 7.936h33.45c5.243 0.00011 9.494-4.251 9.494-9.494-0.003-3.753-2.216-7.152-5.647-8.672-0.1582-7.378-6.183-13.28-13.56-13.28z"/>
  <path style="opacity:.05;color-rendering:auto;color:#000000;isolation:auto;mix-blend-mode:normal;paint-order:stroke fill markers;shape-rendering:auto;solid-color:#000000;image-rendering:auto" d="m0.00000356 161.5h67.47v135.5h-67.47z"/>
 </g>
 <g style="fill:#426d96" transform="matrix(1.132 0 0 1.132 -304.3 -389.3)">
  <g style="fill:#426d96" transform="matrix(-1 0 0 1 547.6 -1342)">
   <path style="color:#000000;fill:#426d96" d="m203.9 1737s-2.675 6.529-3.922 13.33h0.004c0.003 0 0.004 0.0006 0.006 0.0006h0.006 0.004c7.115-1.368 13.31-3.912 13.31-3.912z"/>
   <path style="color:#000000;fill:#426d96" d="m234.1 1762s2.675-6.529 3.922-13.33h-0.005c-0.003 0-0.004-0.0006-0.006-0.0006h-0.006-0.005c-7.115 1.368-13.31 3.912-13.31 3.912z"/>
   <path d="m219 1734c7.066 0 13.01 4.923 14.59 11.51-1.397 0.3666-2.68 0.7407-3.834 1.105-1.086-4.94-5.47-8.613-10.76-8.613-4.703 0-8.683 2.909-10.27 7.025l-3.004-3.01c2.524-4.758 7.53-8.016 13.28-8.016zm-10.75 17.4c1.09 4.936 5.468 8.606 10.75 8.606 4.686 0 8.655-2.888 10.26-6.98l3.002 3.004c-2.532 4.737-7.529 7.977-13.26 7.977-7.062 0-13-4.919-14.59-11.5 1.398-0.3678 2.681-0.7425 3.834-1.108z" style="color-rendering:auto;text-decoration-color:#000000;color:#000000;shape-rendering:auto;solid-color:#000000;text-decoration-line:none;fill:#426d96;mix-blend-mode:normal;shape-padding:0;text-indent:0;image-rendering:auto;white-space:normal;text-decoration-style:solid;isolation:auto;text-transform:none"/>
  </g>
 </g>
</svg>
